<svg xmlns="http://www.w3.org/2000/svg" viewBox="0 0 800 600" width="800" height="600">
  <!-- Background Elements -->
  <circle cx="400" cy="300" r="250" fill="#1a202c" />
  <circle cx="400" cy="300" r="200" fill="#2d3748" />
  
  <!-- Bitcoin Symbol -->
  <g transform="translate(320, 220) scale(2)">
    <circle cx="40" cy="40" r="40" fill="#f7931a" />
    <path d="M50.5,33.2c0.5-3.8-2.3-5.8-6.3-7.2l1.3-5.2l-3.1-0.8l-1.3,5.1c-0.8-0.2-1.6-0.4-2.4-0.6l1.3-5.1l-3.1-0.8l-1.3,5.2
      c-0.7-0.2-1.3-0.3-2-0.5l0,0l-4.3-1.1l-0.8,3.3c0,0,2.3,0.5,2.2,0.6c1.3,0.3,1.5,1.1,1.4,1.7l-1.4,5.7c0.1,0,0.2,0.1,0.3,0.1
      c-0.1,0-0.2-0.1-0.3-0.1l-2,8.1c-0.2,0.4-0.5,1-1.3,0.8c0,0.1-2.2-0.6-2.2-0.6l-1.5,3.5l4.1,1c0.7,0.2,1.5,0.4,2.2,0.6l-1.3,5.3
      l3.1,0.8l1.3-5.2c0.8,0.2,1.6,0.4,2.4,0.6l-1.3,5.2l3.1,0.8l1.3-5.3c5.1,1,9-0.3,10.6-4.1c1.3-3.1,0-4.9-2.7-6.1
      C48.9,37.7,50.1,36.1,50.5,33.2z M44.6,42.7c-0.9,3.7-7.3,1.7-9.3,1.2l1.7-6.7C39,37.7,45.6,38.8,44.6,42.7z M45.6,33.1
      c-0.9,3.4-6.2,1.7-8,1.3l1.5-6.1C41,28.7,46.5,29.6,45.6,33.1z" fill="#ffffff" />
  </g>
  
  <!-- Ethereum Symbol -->
  <g transform="translate(480, 280) scale(1.5)">
    <circle cx="40" cy="40" r="40" fill="#627eea" />
    <path d="M39.5,19.7v15.3l13,7.7L39.5,19.7z" fill="#ffffff" fill-opacity="0.6" />
    <path d="M39.5,19.7L26.5,42.7l13-7.7V19.7z" fill="#ffffff" />
    <path d="M39.5,56.3v-11l13-7.7L39.5,56.3z" fill="#ffffff" fill-opacity="0.6" />
    <path d="M39.5,45.3v11l-13-18.7L39.5,45.3z" fill="#ffffff" />
  </g>
  
  <!-- Ripple Symbol -->
  <g transform="translate(200, 320) scale(1.2)">
    <circle cx="40" cy="40" r="40" fill="#23292f" />
    <path d="M40,15c-13.8,0-25,11.2-25,25s11.2,25,25,25s25-11.2,25-25S53.8,15,40,15z M40,60c-11,0-20-9-20-20s9-20,20-20
      s20,9,20,20S51,60,40,60z" fill="#ffffff" />
    <path d="M50,35c-2.8,0-5,2.2-5,5s2.2,5,5,5s5-2.2,5-5S52.8,35,50,35z M50,42c-1.1,0-2-0.9-2-2s0.9-2,2-2s2,0.9,2,2
      S51.1,42,50,42z" fill="#ffffff" />
    <path d="M30,35c-2.8,0-5,2.2-5,5s2.2,5,5,5s5-2.2,5-5S32.8,35,30,35z M30,42c-1.1,0-2-0.9-2-2s0.9-2,2-2s2,0.9,2,2
      S31.1,42,30,42z" fill="#ffffff" />
    <path d="M40,25c-2.8,0-5,2.2-5,5s2.2,5,5,5s5-2.2,5-5S42.8,25,40,25z M40,32c-1.1,0-2-0.9-2-2s0.9-2,2-2s2,0.9,2,2
      S41.1,32,40,32z" fill="#ffffff" />
    <path d="M40,45c-2.8,0-5,2.2-5,5s2.2,5,5,5s5-2.2,5-5S42.8,45,40,45z M40,52c-1.1,0-2-0.9-2-2s0.9-2,2-2s2,0.9,2,2
      S41.1,52,40,52z" fill="#ffffff" />
  </g>
  
  <!-- Litecoin Symbol -->
  <g transform="translate(350, 400) scale(1.2)">
    <circle cx="40" cy="40" r="40" fill="#345d9d" />
    <path d="M47.5,33.8l-4.5,16.3h-19l2.2-8.1l3.1,0l-1.3,4.9h10.9l3.2-11.4l-14,0l1.3-4.9l14,0l1.8-6.7l4.9-1.8l-2.3,8.5l6.7,0
      l-1.3,4.9L47.5,33.8z" fill="#ffffff" />
  </g>
  
  <!-- Cardano Symbol -->
  <g transform="translate(500, 400) scale(1.2)">
    <circle cx="40" cy="40" r="40" fill="#0033ad" />
    <path d="M40,20c-11,0-20,9-20,20s9,20,20,20s20-9,20-20S51,20,40,20z M40,55c-8.3,0-15-6.7-15-15s6.7-15,15-15s15,6.7,15,15
      S48.3,55,40,55z" fill="#ffffff" />
    <circle cx="40" cy="40" r="5" fill="#ffffff" />
    <circle cx="30" cy="30" r="2" fill="#ffffff" />
    <circle cx="50" cy="30" r="2" fill="#ffffff" />
    <circle cx="30" cy="50" r="2" fill="#ffffff" />
    <circle cx="50" cy="50" r="2" fill="#ffffff" />
  </g>
  
  <!-- Connecting Lines -->
  <g stroke="#4a5568" stroke-width="2" fill="none">
    <path d="M320,220 L200,320" />
    <path d="M320,220 L350,400" />
    <path d="M320,220 L480,280" />
    <path d="M480,280 L500,400" />
    <path d="M200,320 L350,400" />
    <path d="M350,400 L500,400" />
    <path d="M500,400 L480,280" />
  </g>
  
  <!-- Decorative Elements -->
  <g fill="#4a5568">
    <circle cx="320" cy="220" r="5" />
    <circle cx="480" cy="280" r="5" />
    <circle cx="200" cy="320" r="5" />
    <circle cx="350" cy="400" r="5" />
    <circle cx="500" cy="400" r="5" />
  </g>
  
  <!-- Small Particles -->
  <g fill="#4a5568">
    <circle cx="250" cy="250" r="2" />
    <circle cx="450" cy="350" r="2" />
    <circle cx="400" cy="200" r="2" />
    <circle cx="300" cy="350" r="2" />
    <circle cx="420" cy="420" r="2" />
    <circle cx="280" cy="280" r="2" />
    <circle cx="380" cy="330" r="2" />
    <circle cx="430" cy="230" r="2" />
  </g>
</svg>